<svg width="800" height="800" viewBox="0 0 800 800" fill="none" xmlns="http://www.w3.org/2000/svg">
<path d="M510.156 227.5V305.312H458.437V357.031H380.625V305.312H328.906V227.5H380.625V175.781H458.437V227.5H510.156Z" fill="#1D617A"/>
<path d="M510.156 227.5V305.312H458.437V357.031H380.625V305.312H328.906V227.5H380.625V175.781H458.437V227.5H510.156Z" fill="#00A18B"/>
<path d="M614.063 381.406C634.063 347.656 645.469 308.438 645.469 266.406C645.469 141.563 544.219 40.4688 419.531 40.4688C294.688 40.4688 193.594 141.719 193.594 266.406C193.594 266.875 193.594 267.5 193.594 267.969V310.938L156.719 363.75C151.406 371.25 155.938 381.719 164.844 383.125L193.438 387.813L209.219 525.938C210.781 539.688 220.625 550.938 234.063 554.531C258.125 560.937 301.25 569.375 360.625 569.375C360.625 569.375 369.063 719.531 329.063 759.531H403.125V666.094C403.125 660 407.969 655.156 414.063 655.156C420.156 655.156 425 660 425 666.094V759.531H611.25C611.25 759.531 592.969 708.281 577.656 655.469C561.719 600.469 559.844 542.344 572.188 486.25C580.156 449.219 594.688 414.063 614.063 381.406ZM424.844 628.906C424.688 629.531 424.531 630.312 424.219 630.937C423.906 631.562 423.594 632.188 423.281 632.813C422.813 633.438 422.5 633.906 421.875 634.531C419.844 636.563 417.031 637.656 414.063 637.656C413.281 637.656 412.656 637.656 411.875 637.5C411.25 637.344 410.469 637.188 409.844 636.875C409.219 636.563 408.594 636.25 407.969 635.938C407.344 635.469 406.875 635 406.25 634.531C405.781 634.063 405.313 633.438 404.844 632.813C404.375 632.188 404.063 631.562 403.906 630.937C403.594 630.312 403.438 629.531 403.281 628.906C403.125 628.281 403.125 627.5 403.125 626.719C403.125 625.938 403.125 625.313 403.281 624.531C403.438 623.906 403.594 623.125 403.906 622.5C404.219 621.875 404.531 621.25 404.844 620.625C405.313 620 405.625 619.531 406.25 618.906C406.719 618.438 407.344 617.969 407.969 617.5C408.594 617.031 409.219 616.719 409.844 616.406C410.469 616.094 411.25 615.938 411.875 615.781C415.469 615.156 419.219 616.25 421.719 618.75C423.75 620.781 424.844 623.594 424.844 626.406C425 627.5 424.844 628.281 424.844 628.906ZM521.094 385.938C493.75 409.219 458.281 423.281 419.531 423.281C333.438 423.281 263.438 353.906 262.656 267.969C262.656 267.5 262.656 266.875 262.656 266.406C262.5 179.688 332.813 109.375 419.531 109.375C506.25 109.375 576.563 179.688 576.563 266.406C576.563 314.219 555 357.188 521.094 385.938Z" fill="#1D617A"/>
</svg>
