<svg width="661" height="695" viewBox="0 0 661 695" fill="none" xmlns="http://www.w3.org/2000/svg">
<path d="M0 397.031H103.594H198.438C204.531 397.031 209.375 401.875 209.375 407.969C209.375 414.063 204.531 418.906 198.438 418.906H115L198.438 579.219L293.281 397.031H396.875V0.15625H0V397.031ZM240.625 415.625C240.156 416.094 239.531 416.562 238.906 417.031C238.281 417.5 237.656 417.812 237.031 418.125C236.406 418.438 235.625 418.594 235 418.75C234.219 418.906 233.594 418.906 232.812 418.906C230 418.906 227.031 417.656 225 415.625C222.969 413.594 221.875 410.781 221.875 407.969C221.875 405.156 223.125 402.344 225 400.313C227.5 397.813 231.25 396.563 234.844 397.344C235.469 397.5 236.25 397.656 236.875 397.969C237.5 398.281 238.125 398.594 238.75 398.906C239.375 399.375 240 399.688 240.469 400.313C242.5 402.344 243.594 405.156 243.594 407.969C243.75 410.781 242.656 413.594 240.625 415.625ZM91.25 92.1875H158.594V164.688H238.281V92.1875H305.625V304.687H238.281V232.188H158.75V304.687H91.4062V92.1875H91.25Z" fill="#00A18B"/>
<path d="M660.938 0V694.063H584.219V342.656H524.219V305.937H418.75V246.875H524.219V154.531H418.75V95.4687H524.219V58.75H584.219V0H660.938Z" fill="#1D617A"/>
</svg>
