<svg width="800" height="800" viewBox="0 0 800 800" fill="none" xmlns="http://www.w3.org/2000/svg">
<g clip-path="url(#clip0_1_9)">
<path d="M475 600H325C311.193 600 300 611.193 300 625V675C300 688.807 311.193 700 325 700H475C488.807 700 500 688.807 500 675V625C500 611.193 488.807 600 475 600Z" fill="#00A18B"/>
<path d="M775 600V175C775 155.109 767.098 136.032 753.033 121.967C738.968 107.902 719.891 100 700 100H675C668.37 100 662.011 102.634 657.322 107.322C652.634 112.011 650 118.37 650 125C650 131.63 652.634 137.989 657.322 142.678C662.011 147.366 668.37 150 675 150H700C706.63 150 712.989 152.634 717.678 157.322C722.366 162.011 725 168.37 725 175V600H75V175C75 168.37 77.6339 162.011 82.3223 157.322C87.0107 152.634 93.3696 150 100 150H125C131.63 150 137.989 147.366 142.678 142.678C147.366 137.989 150 131.63 150 125C150 118.37 147.366 112.011 142.678 107.322C137.989 102.634 131.63 100 125 100H100C80.1088 100 61.0322 107.902 46.967 121.967C32.9018 136.032 25 155.109 25 175V600C18.3696 600 12.0107 602.634 7.32233 607.322C2.63392 612.011 0 618.37 0 625L0 675C0 708.152 13.1696 739.946 36.6117 763.388C60.0537 786.83 91.8479 800 125 800H675C708.152 800 739.946 786.83 763.388 763.388C786.83 739.946 800 708.152 800 675V625C800 618.37 797.366 612.011 792.678 607.322C787.989 602.634 781.63 600 775 600ZM750 675C750 694.891 742.098 713.968 728.033 728.033C713.968 742.098 694.891 750 675 750H125C105.109 750 86.0322 742.098 71.967 728.033C57.9018 713.968 50 694.891 50 675V650H750V675Z" fill="#1D617A"/>
<path d="M650 250C650.039 236.241 646.292 222.737 639.169 210.965C632.047 199.193 621.824 189.607 609.618 183.257C597.413 176.906 583.695 174.035 569.968 174.959C556.24 175.882 543.03 180.564 531.785 188.491C520.54 196.419 511.692 207.288 506.21 219.907C500.728 232.527 498.824 246.411 500.704 260.041C502.585 273.671 508.179 286.52 516.873 297.184C525.568 307.847 537.028 315.914 550 320.5V350C550 376.522 539.464 401.957 520.711 420.711C501.957 439.464 476.522 450 450 450C423.478 450 398.043 439.464 379.289 420.711C360.536 401.957 350 376.522 350 350V250C350 243.37 347.366 237.011 342.678 232.322C337.989 227.634 331.63 225 325 225C318.37 225 312.011 227.634 307.322 232.322C302.634 237.011 300 243.37 300 250V350C300 389.782 315.804 427.936 343.934 456.066C372.064 484.197 410.218 500 450 500C489.782 500 527.936 484.197 556.066 456.066C584.196 427.936 600 389.782 600 350V320.5C614.589 315.342 627.225 305.798 636.177 293.177C645.128 280.555 649.957 265.474 650 250ZM575 275C570.055 275 565.222 273.534 561.111 270.787C557 268.04 553.795 264.135 551.903 259.567C550.011 254.999 549.516 249.972 550.48 245.123C551.445 240.273 553.826 235.819 557.322 232.322C560.819 228.826 565.273 226.445 570.123 225.48C574.972 224.516 579.999 225.011 584.567 226.903C589.135 228.795 593.04 232 595.787 236.111C598.534 240.222 600 245.055 600 250C600 256.63 597.366 262.989 592.678 267.678C587.989 272.366 581.63 275 575 275Z" fill="#1D617A"/>
<path d="M325 250C291.848 250 260.054 236.83 236.612 213.388C213.17 189.946 200 158.152 200 125V50C200 36.7392 205.268 24.0215 214.645 14.6447C224.021 5.26784 236.739 0 250 0L275 0C281.63 0 287.989 2.63392 292.678 7.32233C297.366 12.0107 300 18.3696 300 25C300 31.6304 297.366 37.9893 292.678 42.6777C287.989 47.3661 281.63 50 275 50H250V125C250 144.891 257.902 163.968 271.967 178.033C286.032 192.098 305.109 200 325 200C344.891 200 363.968 192.098 378.033 178.033C392.098 163.968 400 144.891 400 125V50H375C368.37 50 362.011 47.3661 357.322 42.6777C352.634 37.9893 350 31.6304 350 25C350 18.3696 352.634 12.0107 357.322 7.32233C362.011 2.63392 368.37 0 375 0L400 0C413.261 0 425.979 5.26784 435.355 14.6447C444.732 24.0215 450 36.7392 450 50V125C450 158.152 436.83 189.946 413.388 213.388C389.946 236.83 358.152 250 325 250Z" fill="#00A18B"/>
</g>
<defs>
<clipPath id="clip0_1_9">
<rect width="800" height="800" fill="white"/>
</clipPath>
</defs>
</svg>
