<svg width="800" height="800" viewBox="0 0 800 800" fill="none" xmlns="http://www.w3.org/2000/svg">
<path d="M666.667 166.667H500C491.16 166.667 482.681 170.179 476.43 176.43C470.179 182.681 466.667 191.16 466.667 200V700C466.667 708.841 470.179 717.319 476.43 723.57C482.681 729.822 491.16 733.333 500 733.333H700C708.841 733.333 717.319 729.822 723.57 723.57C729.822 717.319 733.333 708.841 733.333 700V233.333C733.333 215.652 726.31 198.695 713.807 186.193C701.305 173.691 684.348 166.667 666.667 166.667Z" fill="#00A18B"/>
<path d="M466.667 66.6667H133.333C115.652 66.6667 98.6953 73.6905 86.1928 86.193C73.6904 98.6954 66.6666 115.652 66.6666 133.333V700C66.6666 708.841 70.1785 717.319 76.4297 723.57C82.6809 729.822 91.1594 733.333 100 733.333H533.333V133.333C533.333 115.652 526.309 98.6954 513.807 86.193C501.305 73.6905 484.348 66.6667 466.667 66.6667Z" fill="#1D617A"/>
<path d="M200 300C200 291.159 203.512 282.681 209.763 276.43C216.014 270.179 224.493 266.667 233.333 266.667H266.667V233.333C266.667 224.493 270.179 216.014 276.43 209.763C282.681 203.512 291.159 200 300 200C308.841 200 317.319 203.512 323.57 209.763C329.821 216.014 333.333 224.493 333.333 233.333V266.667H366.667C375.507 266.667 383.986 270.179 390.237 276.43C396.488 282.681 400 291.159 400 300C400 308.841 396.488 317.319 390.237 323.57C383.986 329.821 375.507 333.333 366.667 333.333H333.333V366.667C333.333 375.507 329.821 383.986 323.57 390.237C317.319 396.488 308.841 400 300 400C291.159 400 282.681 396.488 276.43 390.237C270.179 383.986 266.667 375.507 266.667 366.667V333.333H233.333C224.493 333.333 216.014 329.821 209.763 323.57C203.512 317.319 200 308.841 200 300ZM366.667 466.667H233.333C224.493 466.667 216.014 470.179 209.763 476.43C203.512 482.681 200 491.159 200 500V733.333H400V500C400 491.159 396.488 482.681 390.237 476.43C383.986 470.179 375.507 466.667 366.667 466.667Z" fill="#00A18B"/>
</svg>
