<svg width="800" height="800" viewBox="0 0 800 800" fill="none" xmlns="http://www.w3.org/2000/svg">
<g clip-path="url(#clip0_1_23)">
<mask id="mask0_1_23" style="mask-type:luminance" maskUnits="userSpaceOnUse" x="0" y="114" width="800" height="572">
<path d="M742.857 114.286H57.1429C25.5837 114.286 0 139.869 0 171.429V628.571C0 660.131 25.5837 685.714 57.1429 685.714H742.857C774.416 685.714 800 660.131 800 628.571V171.429C800 139.869 774.416 114.286 742.857 114.286Z" fill="white"/>
</mask>
<g mask="url(#mask0_1_23)">
<path d="M742.857 114.286H57.1429C25.5837 114.286 0 139.869 0 171.429V628.571C0 660.131 25.5837 685.714 57.1429 685.714H742.857C774.416 685.714 800 660.131 800 628.571V171.429C800 139.869 774.416 114.286 742.857 114.286Z" fill="white"/>
<mask id="mask1_1_23" style="mask-type:alpha" maskUnits="userSpaceOnUse" x="0" y="114" width="800" height="572">
<path d="M742.857 114.286H57.1429C25.5837 114.286 0 139.869 0 171.429V628.571C0 660.131 25.5837 685.714 57.1429 685.714H742.857C774.416 685.714 800 660.131 800 628.571V171.429C800 139.869 774.416 114.286 742.857 114.286Z" fill="white"/>
</mask>
<g mask="url(#mask1_1_23)">
<path d="M800 114.286H0V685.714H800V114.286Z" fill="#00A18B"/>
<path fill-rule="evenodd" clip-rule="evenodd" d="M400 609.523C515.717 609.523 609.523 515.717 609.523 400C609.523 284.283 515.717 190.476 400 190.476C284.283 190.476 190.476 284.283 190.476 400C190.476 515.717 284.283 609.523 400 609.523ZM570.383 419.049C563.309 483.023 521.031 536.389 463.351 559.343C481.926 521.514 492.777 472.229 494.866 419.049H570.383ZM456.731 419.049C453.951 483.306 437.174 540.097 411.014 571.08C407.371 571.311 403.7 571.429 400 571.429C396.3 571.429 392.626 571.311 388.986 571.08C362.826 540.097 346.049 483.306 343.266 419.049H456.731ZM305.134 419.049C307.223 472.229 318.074 521.514 336.649 559.343C278.967 536.389 236.69 483.023 229.617 419.049H305.134ZM343.266 380.953H456.731C453.951 316.694 437.174 259.902 411.014 228.92C407.371 228.689 403.7 228.572 400 228.572C396.3 228.572 392.626 228.689 388.986 228.92C362.826 259.902 346.049 316.694 343.266 380.953ZM336.649 240.658C318.074 278.487 307.223 327.771 305.134 380.953H229.617C236.69 316.976 278.967 263.611 336.649 240.658ZM570.383 380.953H494.866C492.777 327.771 481.926 278.487 463.351 240.658C521.031 263.611 563.309 316.976 570.383 380.953Z" fill="white"/>
</g>
</g>
</g>
<defs>
<clipPath id="clip0_1_23">
<rect width="800" height="800" fill="white"/>
</clipPath>
</defs>
</svg>
